<svg width="20" height="21" viewBox="0 0 20 21" fill="none" xmlns="http://www.w3.org/2000/svg">
<path fill-rule="evenodd" clip-rule="evenodd" d="M15.4585 10.4999C15.4585 10.9141 15.1227 11.2499 14.7085 11.2499L1.7085 11.2499C1.29428 11.2499 0.958496 10.9141 0.958496 10.4999C0.958496 10.0857 1.29428 9.74988 1.7085 9.74988L14.7085 9.74988C15.1227 9.74988 15.4585 10.0857 15.4585 10.4999Z" fill="white"/>
<path fill-rule="evenodd" clip-rule="evenodd" d="M6.23883 16.0302C5.94593 16.3231 5.47106 16.3231 5.17817 16.0302L0.248877 11.1009C-0.0830674 10.769 -0.0830693 10.2308 0.248877 9.89884L5.17817 4.96955C5.47106 4.67665 5.94593 4.67665 6.23883 4.96955C6.53172 5.26244 6.53172 5.73732 6.23883 6.03021L1.76916 10.4999L6.23883 14.9695C6.53172 15.2624 6.53172 15.7373 6.23883 16.0302Z" fill="white"/>
<path fill-rule="evenodd" clip-rule="evenodd" d="M13.2922 1.16663C13.2922 0.752412 13.6279 0.416626 14.0422 0.416626H18.6088C19.0783 0.416626 19.4588 0.797186 19.4588 1.26663V19.7333C19.4588 20.2027 19.0783 20.5833 18.6088 20.5833H13.3755C12.9613 20.5833 12.6255 20.2475 12.6255 19.8333C12.6255 19.4191 12.9613 19.0833 13.3755 19.0833H17.9588V1.91663H14.0422C13.6279 1.91663 13.2922 1.58084 13.2922 1.16663Z" fill="white"/>
</svg>
