<svg width="18" height="18" viewBox="0 0 18 18" fill="none" xmlns="http://www.w3.org/2000/svg">
<path d="M17.8312 13.1157L17.5637 15.523C17.4604 16.4527 16.7212 17.1687 15.7937 17.0477C13.7858 16.7858 10.1194 15.7382 6.19118 11.8099C2.26298 7.88171 1.21482 4.21487 0.952535 2.20663C0.831369 1.27892 1.54746 0.53949 2.47733 0.436171L4.88426 0.168734C5.67691 0.080662 6.44612 0.471935 6.84173 1.16443L7.78941 2.82334C8.23674 3.60639 8.1047 4.59194 7.46702 5.22962L7.2421 5.45454C6.76925 5.92739 6.56941 6.6098 6.8722 7.20602C7.16977 7.79196 7.68214 8.58683 8.54763 9.45231C9.41312 10.3178 10.208 10.8302 10.7939 11.1277C11.3901 11.4305 12.0726 11.2307 12.5454 10.7578L12.7703 10.5329C13.408 9.89525 14.3936 9.7632 15.1766 10.2105L16.8355 11.1582C17.528 11.5538 17.9193 12.323 17.8312 13.1157Z" fill="white"/>
</svg>
