<svg width="18" height="18" viewBox="0 0 18 18" fill="none" xmlns="http://www.w3.org/2000/svg">
<path d="M16.4833 12.7847L16.2747 14.6617C16.1714 15.5914 15.4308 16.3069 14.5053 16.171C12.6679 15.9012 9.45605 14.9132 6.02177 11.479C2.58754 8.04473 1.59915 4.83246 1.32903 2.99478C1.19297 2.06914 1.90849 1.32824 2.83837 1.22492L4.71496 1.01641C5.50761 0.928334 6.27683 1.31961 6.67243 2.0121L7.38441 3.25842C7.83174 4.04146 7.6997 5.02702 7.06202 5.6647L7.04328 5.68344C6.57043 6.15629 6.37088 6.83971 6.68404 7.43056C6.95791 7.94728 7.4095 8.62405 8.14257 9.35712C8.87564 10.0902 9.55241 10.5418 10.0691 10.8157C10.66 11.1288 11.3434 10.9293 11.8163 10.4564L11.835 10.4377C12.4727 9.79999 13.4582 9.66795 14.2413 10.1153L15.4876 10.8273C16.1801 11.2229 16.5714 11.9921 16.4833 12.7847Z" stroke="#EE2CA0" stroke-width="2" stroke-linecap="round" stroke-linejoin="round"/>
</svg>
