<svg width="100" height="27" viewBox="0 0 100 27" fill="none" xmlns="http://www.w3.org/2000/svg">
<path d="M50.1643 22.2771C48.8633 22.2771 47.7712 21.7615 46.8878 20.7303V26.4999H42.5513V10.1241H46.8878V11.3762C47.7391 10.3451 48.8312 9.82948 50.1643 9.82948C51.658 9.82948 52.8786 10.3778 53.8263 11.4744C54.7899 12.5547 55.2718 14.0769 55.2718 16.041C55.2718 18.0215 54.7899 19.56 53.8263 20.6567C52.8786 21.7369 51.658 22.2771 50.1643 22.2771ZM48.6706 18.3734C49.2809 18.3734 49.7949 18.1688 50.2125 17.7596C50.6301 17.334 50.8389 16.7612 50.8389 16.041C50.8389 15.3372 50.6301 14.7807 50.2125 14.3715C49.7949 13.9459 49.2809 13.7332 48.6706 13.7332C48.3654 13.7332 48.0362 13.8068 47.6828 13.9541C47.3456 14.1014 47.0805 14.2978 46.8878 14.5434V17.5632C47.0645 17.7923 47.3295 17.9887 47.6828 18.1524C48.0522 18.2997 48.3815 18.3734 48.6706 18.3734Z" fill="white"/>
<path d="M67.3834 20.4603C66.1949 21.6715 64.6048 22.2771 62.6132 22.2771C60.6216 22.2771 59.0315 21.6715 57.843 20.4603C56.6705 19.2491 56.0843 17.776 56.0843 16.041C56.0843 14.306 56.6705 12.8411 57.843 11.6463C59.0315 10.4351 60.6216 9.82948 62.6132 9.82948C64.6048 9.82948 66.1949 10.4351 67.3834 11.6463C68.5719 12.8411 69.1662 14.306 69.1662 16.041C69.1662 17.776 68.5719 19.2491 67.3834 20.4603ZM62.6132 18.3734C63.2717 18.3734 63.7857 18.1606 64.1551 17.7351C64.5245 17.2931 64.7092 16.7284 64.7092 16.041C64.7092 15.3699 64.5245 14.8216 64.1551 14.3961C63.7857 13.9541 63.2717 13.7332 62.6132 13.7332C61.9708 13.7332 61.4648 13.9541 61.0954 14.3961C60.726 14.8216 60.5413 15.3699 60.5413 16.041C60.5413 16.7284 60.726 17.2931 61.0954 17.7351C61.4648 18.1606 61.9708 18.3734 62.6132 18.3734Z" fill="white"/>
<path d="M75.1205 21.9825H70.7839V10.1241H75.1205V21.9825Z" fill="white"/>
<path d="M89.7508 21.9825H85.4143V15.4272C85.4143 14.2978 84.8521 13.7332 83.7278 13.7332C83.0372 13.7332 82.4188 14.0441 81.8728 14.6661V21.9825H77.5362V10.1241H81.8728V11.4744C82.8204 10.3778 84.1535 9.82948 85.872 9.82948C87.1569 9.82948 88.1206 10.1814 88.763 10.8852C89.4216 11.5726 89.7508 12.4647 89.7508 13.5613V21.9825Z" fill="white"/>
<path d="M97.0608 22.2771C95.7598 22.2771 94.764 21.9661 94.0734 21.3441C93.3988 20.7058 93.0616 19.7728 93.0616 18.5452V13.9541H91.1342V10.1241H93.0616V6.8833H97.3981V10.1241H99.7591V13.9541H97.3981V17.2686C97.3981 17.5796 97.4864 17.8414 97.6631 18.0542C97.8398 18.267 98.0727 18.3734 98.3618 18.3734C98.7954 18.3734 99.0845 18.2997 99.2291 18.1524L100 21.4914C99.4218 22.0152 98.4421 22.2771 97.0608 22.2771Z" fill="white"/>
<path d="M72.9671 8.68374C73.6628 8.68374 74.2509 8.43897 74.7312 7.94942C75.2282 7.443 75.4767 6.83529 75.4767 6.12629C75.4767 5.4173 75.2282 4.81803 74.7312 4.32848C74.2509 3.82206 73.6628 3.56885 72.9671 3.56885C72.2714 3.56885 71.675 3.82206 71.1781 4.32848C70.6977 4.81803 70.4575 5.4173 70.4575 6.12629C70.4575 6.83529 70.6977 7.443 71.1781 7.94942C71.675 8.43897 72.2714 8.68374 72.9671 8.68374Z" fill="#CD2922"/>
<path d="M62.7278 18.5045C63.4236 18.5045 64.0116 18.2598 64.492 17.7702C64.9889 17.2638 65.2374 16.6561 65.2374 15.9471C65.2374 15.2381 64.9889 14.6388 64.492 14.1493C64.0116 13.6429 63.4236 13.3896 62.7278 13.3896C62.0321 13.3896 61.4358 13.6429 60.9388 14.1493C60.4585 14.6388 60.2183 15.2381 60.2183 15.9471C60.2183 16.6561 60.4585 17.2638 60.9388 17.7702C61.4358 18.2598 62.0321 18.5045 62.7278 18.5045Z" fill="#CD2922"/>
<rect x="60.2183" y="0.5" width="5.01914" height="12.2757" fill="#CD2922"/>
<path d="M5.24449 21.841H0.000488281V6.5H5.24449C7.59049 6.5 9.48416 7.22833 10.9255 8.685C12.3822 10.1417 13.1105 11.974 13.1105 14.182C13.1105 16.4053 12.3822 18.2377 10.9255 19.679C9.48416 21.1203 7.59049 21.841 5.24449 21.841ZM5.24449 20.139C7.05382 20.139 8.48749 19.5717 9.54549 18.437C10.6035 17.3023 11.1325 15.884 11.1325 14.182C11.1325 12.4647 10.6112 11.0387 9.56849 9.904C8.52582 8.76933 7.08449 8.202 5.24449 8.202H1.90949V20.139H5.24449Z" fill="#CD2922"/>
<path d="M21.35 22.117C19.694 22.117 18.337 21.5803 17.279 20.507C16.221 19.4183 15.692 18.0077 15.692 16.275C15.692 14.6497 16.2133 13.2773 17.256 12.158C18.2986 11.0233 19.602 10.456 21.166 10.456C22.8066 10.456 24.1023 11.0233 25.053 12.158C26.019 13.2773 26.502 14.6957 26.502 16.413V16.85H17.509C17.5856 17.9387 17.9843 18.851 18.705 19.587C19.4256 20.323 20.361 20.691 21.511 20.691C22.891 20.691 24.0333 20.2233 24.938 19.288L25.766 20.415C24.6313 21.5497 23.1593 22.117 21.35 22.117ZM24.8 15.585C24.7846 14.6343 24.4626 13.7833 23.834 13.032C23.2053 12.2653 22.3083 11.882 21.143 11.882C20.039 11.882 19.165 12.2577 18.521 13.009C17.8923 13.7603 17.555 14.619 17.509 15.585H24.8Z" fill="#CD2922"/>
<path d="M34.4489 21.841H32.5629L27.9399 10.732H29.8029L33.5059 19.84L37.1859 10.732H39.0719L34.4489 21.841Z" fill="#CD2922"/>
</svg>
