<svg width="22" height="22" viewBox="0 0 22 22" fill="none" xmlns="http://www.w3.org/2000/svg">
<path fill-rule="evenodd" clip-rule="evenodd" d="M2.75 12.75C2.05964 12.75 1.5 13.3096 1.5 14V19C1.5 19.6904 2.05964 20.25 2.75 20.25H18.75C19.4404 20.25 20 19.6904 20 19V14C20 13.3096 19.4404 12.75 18.75 12.75H15.7166C15.2698 15.1205 12.8326 16.125 10.75 16.125C8.66741 16.125 6.23024 15.1205 5.78338 12.75H2.75ZM0 14C0 12.4812 1.23122 11.25 2.75 11.25H5.96429C6.68235 11.25 7.15667 11.823 7.24286 12.3867C7.4515 13.7514 8.91667 14.625 10.75 14.625C12.5833 14.625 14.0485 13.7514 14.2571 12.3867C14.3433 11.823 14.8177 11.25 15.5357 11.25H18.75C20.2688 11.25 21.5 12.4812 21.5 14V19C21.5 20.5188 20.2688 21.75 18.75 21.75H2.75C1.23122 21.75 0 20.5188 0 19V14Z" fill="#EE2CA0"/>
<path fill-rule="evenodd" clip-rule="evenodd" d="M10.75 10.75C10.3358 10.75 10 10.4142 10 10L10 1C10 0.585787 10.3358 0.25 10.75 0.25C11.1642 0.25 11.5 0.585787 11.5 1L11.5 10C11.5 10.4142 11.1642 10.75 10.75 10.75Z" fill="#EE2CA0"/>
<path fill-rule="evenodd" clip-rule="evenodd" d="M10.75 9.75002L8.34996 6.55002C8.10143 6.21865 7.63133 6.15149 7.29996 6.40002C6.96858 6.64854 6.90143 7.11865 7.14996 7.45002L10.07 11.3433C10.41 11.7967 11.09 11.7967 11.43 11.3433L14.35 7.45002C14.5985 7.11865 14.5313 6.64855 14.2 6.40002C13.8686 6.15149 13.3985 6.21865 13.15 6.55002L10.75 9.75002Z" fill="#EE2CA0"/>
</svg>
