<svg width="100" height="26" viewBox="0 0 100 26" fill="none" xmlns="http://www.w3.org/2000/svg">
<path d="M50.1643 21.7771C48.8633 21.7771 47.7712 21.2615 46.8878 20.2303V25.9999H42.5513V9.6241H46.8878V10.8762C47.7391 9.84506 48.8312 9.32948 50.1643 9.32948C51.658 9.32948 52.8786 9.87779 53.8263 10.9744C54.7899 12.0547 55.2718 13.5769 55.2718 15.541C55.2718 17.5215 54.7899 19.06 53.8263 20.1567C52.8786 21.2369 51.658 21.7771 50.1643 21.7771ZM48.6706 17.8734C49.2809 17.8734 49.7949 17.6688 50.2125 17.2596C50.6301 16.834 50.8389 16.2612 50.8389 15.541C50.8389 14.8372 50.6301 14.2807 50.2125 13.8715C49.7949 13.4459 49.2809 13.2332 48.6706 13.2332C48.3654 13.2332 48.0362 13.3068 47.6828 13.4541C47.3456 13.6014 47.0805 13.7978 46.8878 14.0434V17.0632C47.0645 17.2923 47.3295 17.4887 47.6828 17.6524C48.0522 17.7997 48.3815 17.8734 48.6706 17.8734Z" fill="#9FA2AD"/>
<path d="M67.3834 19.9603C66.1949 21.1715 64.6048 21.7771 62.6132 21.7771C60.6216 21.7771 59.0315 21.1715 57.843 19.9603C56.6705 18.7491 56.0843 17.276 56.0843 15.541C56.0843 13.806 56.6705 12.3411 57.843 11.1463C59.0315 9.93508 60.6216 9.32948 62.6132 9.32948C64.6048 9.32948 66.1949 9.93508 67.3834 11.1463C68.5719 12.3411 69.1662 13.806 69.1662 15.541C69.1662 17.276 68.5719 18.7491 67.3834 19.9603ZM62.6132 17.8734C63.2717 17.8734 63.7857 17.6606 64.1551 17.2351C64.5245 16.7931 64.7092 16.2284 64.7092 15.541C64.7092 14.8699 64.5245 14.3216 64.1551 13.8961C63.7857 13.4541 63.2717 13.2332 62.6132 13.2332C61.9708 13.2332 61.4648 13.4541 61.0954 13.8961C60.726 14.3216 60.5413 14.8699 60.5413 15.541C60.5413 16.2284 60.726 16.7931 61.0954 17.2351C61.4648 17.6606 61.9708 17.8734 62.6132 17.8734Z" fill="#9FA2AD"/>
<path d="M75.1205 21.4825H70.7839V9.6241H75.1205V21.4825Z" fill="#9FA2AD"/>
<path d="M89.7508 21.4825H85.4143V14.9272C85.4143 13.7978 84.8521 13.2332 83.7278 13.2332C83.0372 13.2332 82.4188 13.5441 81.8728 14.1661V21.4825H77.5362V9.6241H81.8728V10.9744C82.8204 9.87779 84.1535 9.32948 85.872 9.32948C87.1569 9.32948 88.1206 9.68138 88.763 10.3852C89.4216 11.0726 89.7508 11.9647 89.7508 13.0613V21.4825Z" fill="#9FA2AD"/>
<path d="M97.0608 21.7771C95.7598 21.7771 94.764 21.4661 94.0734 20.8441C93.3988 20.2058 93.0616 19.2728 93.0616 18.0452V13.4541H91.1342V9.6241H93.0616V6.3833H97.3981V9.6241H99.7591V13.4541H97.3981V16.7686C97.3981 17.0796 97.4864 17.3414 97.6631 17.5542C97.8398 17.767 98.0727 17.8734 98.3618 17.8734C98.7954 17.8734 99.0845 17.7997 99.2291 17.6524L100 20.9914C99.4218 21.5152 98.4421 21.7771 97.0608 21.7771Z" fill="#9FA2AD"/>
<path d="M72.9671 8.18386C73.6628 8.18386 74.2509 7.93909 74.7312 7.44954C75.2282 6.94312 75.4767 6.33541 75.4767 5.62641C75.4767 4.91742 75.2282 4.31815 74.7312 3.82861C74.2509 3.32218 73.6628 3.06897 72.9671 3.06897C72.2714 3.06897 71.675 3.32218 71.1781 3.82861C70.6977 4.31815 70.4575 4.91742 70.4575 5.62641C70.4575 6.33541 70.6977 6.94312 71.1781 7.44954C71.675 7.93909 72.2714 8.18386 72.9671 8.18386Z" fill="#CD2922"/>
<path d="M62.7278 18.0045C63.4236 18.0045 64.0116 17.7598 64.492 17.2702C64.9889 16.7638 65.2374 16.1561 65.2374 15.4471C65.2374 14.7381 64.9889 14.1388 64.492 13.6493C64.0116 13.1429 63.4236 12.8896 62.7278 12.8896C62.0321 12.8896 61.4358 13.1429 60.9388 13.6493C60.4585 14.1388 60.2183 14.7381 60.2183 15.4471C60.2183 16.1561 60.4585 16.7638 60.9388 17.2702C61.4358 17.7598 62.0321 18.0045 62.7278 18.0045Z" fill="#CD2922"/>
<rect x="60.2183" width="5.01914" height="12.2757" fill="#CD2922"/>
<path d="M5.24449 21.341H0.000488281V6H5.24449C7.59049 6 9.48416 6.72833 10.9255 8.185C12.3822 9.64167 13.1105 11.474 13.1105 13.682C13.1105 15.9053 12.3822 17.7377 10.9255 19.179C9.48416 20.6203 7.59049 21.341 5.24449 21.341ZM5.24449 19.639C7.05382 19.639 8.48749 19.0717 9.54549 17.937C10.6035 16.8023 11.1325 15.384 11.1325 13.682C11.1325 11.9647 10.6112 10.5387 9.56849 9.404C8.52582 8.26933 7.08449 7.702 5.24449 7.702H1.90949V19.639H5.24449Z" fill="#CD2922"/>
<path d="M21.35 21.617C19.694 21.617 18.337 21.0803 17.279 20.007C16.221 18.9183 15.692 17.5077 15.692 15.775C15.692 14.1497 16.2133 12.7773 17.256 11.658C18.2986 10.5233 19.602 9.956 21.166 9.956C22.8066 9.956 24.1023 10.5233 25.053 11.658C26.019 12.7773 26.502 14.1957 26.502 15.913V16.35H17.509C17.5856 17.4387 17.9843 18.351 18.705 19.087C19.4256 19.823 20.361 20.191 21.511 20.191C22.891 20.191 24.0333 19.7233 24.938 18.788L25.766 19.915C24.6313 21.0497 23.1593 21.617 21.35 21.617ZM24.8 15.085C24.7846 14.1343 24.4626 13.2833 23.834 12.532C23.2053 11.7653 22.3083 11.382 21.143 11.382C20.039 11.382 19.165 11.7577 18.521 12.509C17.8923 13.2603 17.555 14.119 17.509 15.085H24.8Z" fill="#CD2922"/>
<path d="M34.4489 21.341H32.5629L27.9399 10.232H29.8029L33.5059 19.34L37.1859 10.232H39.0719L34.4489 21.341Z" fill="#CD2922"/>
</svg>
