<svg width="115" height="60" viewBox="0 0 115 60" fill="none" xmlns="http://www.w3.org/2000/svg">
<path d="M29.3858 23.7124C30.0255 24.5502 30.3456 25.5808 30.3456 26.8041C30.3456 28.5361 29.6724 29.8677 28.327 30.7994C26.9808 31.7312 25.0184 32.1971 22.4398 32.1971H12.2188V12.4324H21.8752C24.2845 12.4324 26.1339 12.8939 27.4235 13.8159C28.7125 14.7384 29.3576 15.9902 29.3576 17.5714C29.3576 18.5312 29.1266 19.388 28.6656 20.1406C28.2043 20.8937 27.5598 21.4868 26.7315 21.9194C27.8613 22.2771 28.7456 22.8747 29.3858 23.7124ZM16.7646 15.8769V20.5357H21.3105C22.4399 20.5357 23.2964 20.3381 23.8801 19.943C24.4631 19.5477 24.7552 18.9643 24.7552 18.1924C24.7552 17.4209 24.4631 16.8421 23.8801 16.4561C23.2964 16.0704 22.4399 15.8771 21.3105 15.8771H16.7646V15.8769ZM24.826 28.1594C25.4374 27.764 25.7436 27.1524 25.7436 26.3241C25.7436 24.6863 24.5295 23.8675 22.1013 23.8675H16.7646V28.7524H22.1013C23.3056 28.7522 24.2142 28.5546 24.826 28.1594Z" fill="white"/>
<path d="M48.3034 25.8442H36.8117C37.0187 26.7854 37.508 27.5291 38.2799 28.0748C39.0517 28.6209 40.0115 28.8935 41.1599 28.8935C41.9507 28.8935 42.6515 28.7763 43.2636 28.5407C43.875 28.3054 44.4446 27.9335 44.9717 27.4254L47.3154 29.9664C45.8845 31.6042 43.7952 32.4227 41.047 32.4227C39.334 32.4227 37.8186 32.0889 36.5011 31.4205C35.1833 30.7525 34.1668 29.8251 33.4517 28.6393C32.7362 27.4535 32.3789 26.1077 32.3789 24.6015C32.3789 23.1148 32.7318 21.7735 33.4376 20.5782C34.1436 19.383 35.1127 18.4513 36.3456 17.7829C37.5784 17.1148 38.9577 16.7805 40.4823 16.7805C41.969 16.7805 43.3152 17.1009 44.5197 17.7403C45.7243 18.3805 46.6702 19.2983 47.3576 20.4935C48.0446 21.6893 48.3882 23.077 48.3882 24.6582C48.3882 24.7145 48.3601 25.1101 48.3034 25.8442ZM37.9976 20.9593C37.3201 21.524 36.9058 22.2961 36.7554 23.2746H44.2376C44.0868 22.3148 43.6729 21.5479 42.9954 20.9735C42.3179 20.3995 41.4892 20.1123 40.5107 20.1123C39.5127 20.1123 38.6754 20.3946 37.9976 20.9593Z" fill="white"/>
<path d="M66.1203 17.0063L59.2591 33.1289C58.5627 34.8795 57.7015 36.1121 56.6758 36.8277C55.6496 37.5428 54.4119 37.9005 52.9628 37.9005C52.1721 37.9005 51.3909 37.7778 50.6191 37.5334C49.847 37.2887 49.2166 36.9497 48.7275 36.5173L50.3368 33.3832C50.6758 33.6838 51.066 33.9196 51.5087 34.0889C51.9507 34.2583 52.3886 34.343 52.8217 34.343C53.424 34.343 53.9131 34.1971 54.2899 33.9053C54.6662 33.6136 55.005 33.129 55.3064 32.4514L55.3627 32.31L48.784 17.0065H53.3299L57.5931 27.3124L61.885 17.0065H66.1203V17.0063Z" fill="white"/>
<path d="M70.4256 31.4208C69.1552 30.7527 68.1619 29.8253 67.4468 28.6396C66.7313 27.4537 66.374 26.108 66.374 24.6018C66.374 23.0962 66.7313 21.7502 67.4468 20.5643C68.1619 19.3784 69.1552 18.4515 70.4256 17.7831C71.6964 17.115 73.1315 16.7808 74.7317 16.7808C76.3312 16.7808 77.7619 17.115 79.0234 17.7831C80.2843 18.4515 81.2723 19.3784 81.9881 20.5643C82.7033 21.7502 83.0609 23.0962 83.0609 24.6018C83.0609 26.108 82.7033 27.4537 81.9881 28.6396C81.2723 29.8253 80.2843 30.7527 79.0234 31.4208C77.7619 32.0892 76.3313 32.4229 74.7317 32.4229C73.1315 32.4228 71.6964 32.089 70.4256 31.4208ZM77.5128 27.6653C78.2372 26.9029 78.5997 25.8823 78.5997 24.6018C78.5997 23.3219 78.2372 22.3006 77.5128 21.5382C76.788 20.7759 75.8611 20.3949 74.7317 20.3949C73.6023 20.3949 72.6705 20.7761 71.9364 21.5382C71.2023 22.3004 70.8352 23.3219 70.8352 24.6018C70.8352 25.8823 71.2023 26.9029 71.9364 27.6653C72.6705 28.4277 73.6023 28.809 74.7317 28.809C75.8611 28.809 76.788 28.4275 77.5128 27.6653Z" fill="white"/>
<path d="M88.9198 31.4208C87.6493 30.7527 86.6561 29.8253 85.9409 28.6396C85.2255 27.4537 84.8682 26.108 84.8682 24.6018C84.8682 23.0962 85.2255 21.7502 85.9409 20.5643C86.6561 19.3784 87.6493 18.4515 88.9198 17.7831C90.1905 17.115 91.6256 16.7808 93.2258 16.7808C94.8253 16.7808 96.2561 17.115 97.5176 17.7831C98.7784 18.4515 99.7665 19.3784 100.482 20.5643C101.197 21.7502 101.555 23.0962 101.555 24.6018C101.555 26.108 101.197 27.4537 100.482 28.6396C99.7665 29.8253 98.7784 30.7527 97.5176 31.4208C96.2561 32.0892 94.8255 32.4229 93.2258 32.4229C91.6256 32.4228 90.1903 32.089 88.9198 31.4208ZM96.007 27.6653C96.7314 26.9029 97.0939 25.8823 97.0939 24.6018C97.0939 23.3219 96.7314 22.3006 96.007 21.5382C95.2821 20.7759 94.3552 20.3949 93.2258 20.3949C92.0964 20.3949 91.1646 20.7761 90.4305 21.5382C89.6964 22.3004 89.3293 23.3219 89.3293 24.6018C89.3293 25.8823 89.6964 26.9029 90.4305 27.6653C91.1646 28.4277 92.0964 28.809 93.2258 28.809C94.3552 28.809 95.2821 28.4275 96.007 27.6653Z" fill="white"/>
<path d="M17.0898 41.8862C17.5184 42.1255 17.8546 42.4595 18.0969 42.8885C18.3396 43.3176 18.4608 43.8133 18.4608 44.3758C18.4608 44.9387 18.3396 45.436 18.0969 45.8685C17.8546 46.301 17.5184 46.6368 17.0898 46.8757C16.6607 47.1149 16.1754 47.2345 15.6338 47.2345C15.2191 47.2345 14.8391 47.154 14.4947 46.9918C14.15 46.8301 13.8655 46.5947 13.6405 46.2851V47.1712H12.6699V39.3442H13.6826V42.4245C13.9076 42.1289 14.1891 41.9058 14.5264 41.7546C14.8639 41.6035 15.2331 41.528 15.634 41.528C16.1754 41.5278 16.6607 41.6474 17.0898 41.8862ZM16.5147 46.1004C16.7995 45.9352 17.0243 45.7033 17.1898 45.4045C17.355 45.1055 17.4378 44.7627 17.4378 44.3758C17.4378 43.9893 17.355 43.6465 17.1898 43.3475C17.0245 43.0484 16.7995 42.8183 16.5147 42.6564C16.2299 42.4947 15.9081 42.4137 15.5496 42.4137C15.1979 42.4137 14.8779 42.4947 14.5897 42.6564C14.3012 42.8183 14.0762 43.0486 13.9145 43.3475C13.7526 43.6465 13.6718 43.9893 13.6718 44.3758C13.6718 44.7627 13.7524 45.1055 13.9145 45.4045C14.0762 45.7035 14.301 45.9354 14.5897 46.1004C14.8779 46.2658 15.1977 46.3484 15.5496 46.3484C15.9081 46.3484 16.2299 46.266 16.5147 46.1004Z" fill="white"/>
<path d="M24.8955 44.7134H20.3593C20.4226 45.2057 20.6388 45.6014 21.0081 45.9002C21.3773 46.1991 21.8362 46.3484 22.3848 46.3484C23.0531 46.3484 23.5908 46.1234 23.999 45.6732L24.558 46.3274C24.3046 46.6226 23.9901 46.8478 23.6137 47.0026C23.2374 47.1574 22.8173 47.2345 22.3531 47.2345C21.7624 47.2345 21.2385 47.1133 20.7814 46.8706C20.3243 46.6279 19.9708 46.289 19.7214 45.8526C19.4714 45.4167 19.3467 44.9244 19.3467 44.3758C19.3467 43.8344 19.4679 43.3456 19.7106 42.9097C19.9533 42.4737 20.2873 42.134 20.7129 41.8913C21.138 41.649 21.6181 41.5276 22.1529 41.5276C22.6873 41.5276 23.1636 41.6488 23.5822 41.8913C24.0005 42.134 24.3276 42.4737 24.5633 42.9097C24.7987 43.3456 24.9165 43.8448 24.9165 44.4073C24.9165 44.485 24.9096 44.5869 24.8955 44.7134ZM20.9344 42.8252C20.6073 43.1204 20.4157 43.5073 20.3593 43.9858H23.9461C23.8898 43.5147 23.6982 43.1296 23.3711 42.8305C23.0439 42.5315 22.6379 42.382 22.1529 42.382C21.6678 42.382 21.2615 42.5299 20.9344 42.8252Z" fill="white"/>
<path d="M34.1044 41.5803L31.3934 47.7303C31.1542 48.3001 30.8746 48.7008 30.5549 48.9327C30.2347 49.1651 29.8494 49.281 29.3996 49.281C29.1254 49.281 28.8597 49.2369 28.6032 49.149C28.3467 49.0611 28.1339 48.9327 27.9648 48.7641L28.3977 48.0045C28.686 48.2787 29.02 48.4158 29.3996 48.4158C29.6457 48.4158 29.8516 48.3507 30.0166 48.2207C30.1816 48.0908 30.3313 47.8676 30.4651 47.5509L30.6442 47.1609L28.1758 41.5803H29.231L31.1824 46.0532L33.1129 41.5803H34.1044Z" fill="white"/>
<path d="M35.7923 46.8653C35.3495 46.6192 35.0028 46.2799 34.7536 45.8474C34.5036 45.4149 34.3789 44.9244 34.3789 44.3758C34.3789 43.8272 34.5038 43.3367 34.7536 42.9042C35.0028 42.4717 35.3495 42.1342 35.7923 41.8916C36.2356 41.6493 36.7348 41.5278 37.2903 41.5278C37.8459 41.5278 38.3435 41.6491 38.7829 41.8916C39.2223 42.1342 39.5671 42.4717 39.8169 42.9042C40.0667 43.3367 40.1914 43.8272 40.1914 44.3758C40.1914 44.9244 40.0665 45.4149 39.8169 45.8474C39.5673 46.2799 39.2225 46.6192 38.7829 46.8653C38.3433 47.1115 37.8459 47.2345 37.2903 47.2345C36.7348 47.2345 36.2356 47.1115 35.7923 46.8653ZM38.2554 46.1004C38.5404 45.9353 38.7637 45.7034 38.9253 45.4045C39.0868 45.1057 39.168 44.7627 39.168 44.3758C39.168 43.9893 39.087 43.6465 38.9253 43.3475C38.7635 43.0484 38.5404 42.8184 38.2554 42.6564C37.9706 42.4947 37.6492 42.4138 37.2903 42.4138C36.9315 42.4138 36.6101 42.4947 36.3253 42.6564C36.0403 42.8184 35.8153 43.0486 35.6501 43.3475C35.4847 43.6465 35.4021 43.9893 35.4021 44.3758C35.4021 44.7627 35.4845 45.1055 35.6501 45.4045C35.8153 45.7036 36.0401 45.9355 36.3253 46.1004C36.6101 46.2658 36.9315 46.3484 37.2903 46.3484C37.6492 46.3484 37.9708 46.266 38.2554 46.1004Z" fill="white"/>
<path d="M46.8049 41.5803V47.1713H45.8449V46.3275C45.6409 46.6157 45.3721 46.8389 45.0379 46.9971C44.7037 47.1554 44.3397 47.2345 43.9463 47.2345C43.2006 47.2345 42.6135 47.0287 42.1845 46.6175C41.7554 46.2064 41.541 45.5996 41.541 44.7979V41.5803H42.5537V44.6818C42.5537 45.2235 42.6837 45.633 42.944 45.9106C43.204 46.1883 43.5771 46.3275 44.0621 46.3275C44.5965 46.3275 45.0184 46.1655 45.3278 45.8421C45.6372 45.5186 45.7922 45.0613 45.7922 44.4706V41.5803H46.8049Z" fill="white"/>
<path d="M50.4864 41.7809C50.831 41.6118 51.2495 41.5278 51.7418 41.5278V42.509C51.6854 42.502 51.6079 42.4982 51.5095 42.4982C50.9608 42.4982 50.5302 42.6619 50.2173 42.9886C49.9044 43.3157 49.748 43.7816 49.748 44.3866V47.1713H48.7354V41.5803H49.7059V42.5193C49.8815 42.1961 50.1418 41.9495 50.4864 41.7809Z" fill="white"/>
<path d="M53.3128 47.0498C52.8911 46.9267 52.5605 46.7703 52.3213 46.5805L52.7434 45.7788C52.9895 45.9548 53.2882 46.0951 53.6399 46.2005C53.9914 46.3063 54.3466 46.359 54.7054 46.359C55.5912 46.359 56.0344 46.1055 56.0344 45.5994C56.0344 45.4303 55.9746 45.2969 55.855 45.1986C55.7354 45.1004 55.5859 45.0284 55.4064 44.9824C55.2274 44.9368 54.9721 44.8858 54.642 44.8294C54.1918 44.7592 53.8242 44.6783 53.5396 44.5867C53.255 44.4952 53.0101 44.3406 52.8065 44.1227C52.6024 43.9047 52.5005 43.5989 52.5005 43.2049C52.5005 42.6987 52.7115 42.2927 53.1336 41.9868C53.5553 41.6808 54.1212 41.5278 54.8318 41.5278C55.2044 41.5278 55.5771 41.5734 55.9498 41.6647C56.3225 41.7561 56.6284 41.8791 56.8677 42.034L56.4352 42.8357C55.9781 42.5405 55.4398 42.3928 54.821 42.3928C54.392 42.3928 54.0653 42.463 53.8403 42.6038C53.6151 42.7445 53.5028 42.9304 53.5028 43.1628C53.5028 43.3456 53.5661 43.4895 53.6926 43.5952C53.8191 43.7006 53.9755 43.7781 54.1619 43.8272C54.3482 43.8766 54.6104 43.9329 54.9479 43.9962C55.3977 44.0737 55.7618 44.1561 56.0395 44.2442C56.3172 44.3323 56.5548 44.4816 56.7515 44.6923C56.9482 44.9033 57.0471 45.1989 57.0471 45.5784C57.0471 46.085 56.8308 46.4876 56.3983 46.7862C55.9659 47.0854 55.3765 47.2347 54.6312 47.2347C54.1743 47.2343 53.7349 47.1729 53.3128 47.0498Z" fill="white"/>
<path d="M63.3447 44.7134H58.8086C58.8718 45.2057 59.0881 45.6014 59.4573 45.9002C59.8265 46.1991 60.2854 46.3484 60.8341 46.3484C61.5023 46.3484 62.04 46.1234 62.4482 45.6732L63.0073 46.3274C62.7538 46.6226 62.4393 46.8478 62.063 47.0026C61.6866 47.1574 61.2665 47.2345 60.8023 47.2345C60.2116 47.2345 59.6878 47.1133 59.2307 46.8706C58.7736 46.6279 58.42 46.289 58.1706 45.8526C57.9206 45.4167 57.7959 44.9244 57.7959 44.3758C57.7959 43.8344 57.9171 43.3456 58.1598 42.9097C58.4025 42.4737 58.7365 42.134 59.1621 41.8913C59.5873 41.649 60.0674 41.5276 60.6022 41.5276C61.1366 41.5276 61.6128 41.6488 62.0314 41.8913C62.4497 42.134 62.7768 42.4737 63.0126 42.9097C63.2479 43.3456 63.3657 43.8448 63.3657 44.4073C63.3655 44.485 63.3586 44.5869 63.3447 44.7134ZM59.3836 42.8252C59.0565 43.1204 58.8649 43.5073 58.8086 43.9858H62.3954C62.339 43.5147 62.1474 43.1296 61.8203 42.8305C61.4932 42.5315 61.0871 42.382 60.6022 42.382C60.1168 42.382 59.7107 42.5299 59.3836 42.8252Z" fill="white"/>
<path d="M64.7695 39.3442H65.7822V47.1712H64.7695V39.3442Z" fill="white"/>
<path d="M68.851 41.0951V41.5801H70.4756V42.4133H68.8722V47.1708H67.8595V42.4133H66.9102V41.5801H67.8595V41.0843C67.8595 40.5292 68.0213 40.0894 68.3449 39.7657C68.6682 39.4425 69.122 39.2808 69.7056 39.2808C69.9306 39.2808 70.1416 39.3088 70.3387 39.365C70.5354 39.4217 70.704 39.5023 70.8448 39.6077L70.5389 40.3776C70.3065 40.2021 70.0466 40.1142 69.7583 40.1142C69.1533 40.114 68.851 40.4409 68.851 41.0951Z" fill="white"/>
<path d="M107.954 60H6.7521C3.02908 60 0 56.9709 0 53.2479V6.7521C0 3.02908 3.02908 0 6.7521 0H107.954C111.677 0 114.706 3.02908 114.706 6.7521V53.2479C114.706 56.9709 111.677 60 107.954 60ZM6.7521 3.52941C4.97496 3.52941 3.52941 4.97496 3.52941 6.7521V53.2479C3.52941 55.0249 4.97496 56.4706 6.7521 56.4706H107.954C109.731 56.4706 111.176 55.025 111.176 53.2479V6.7521C111.176 4.97496 109.731 3.52941 107.954 3.52941H6.7521Z" fill="#EE2CA0"/>
</svg>
