<svg width="24" height="24" viewBox="0 0 24 24" fill="none" xmlns="http://www.w3.org/2000/svg">
<circle cx="12" cy="12" r="11" stroke="url(#paint0_linear_1_703)" stroke-width="2"/>
<path d="M8.6585 14.2474C8.24287 13.8837 7.61111 13.9259 7.24742 14.3415C6.88374 14.7571 6.92586 15.3889 7.3415 15.7526L8.6585 14.2474ZM16.6585 15.7526C17.0741 15.3889 17.1163 14.7571 16.7526 14.3415C16.3889 13.9259 15.7571 13.8837 15.3415 14.2474L16.6585 15.7526ZM8 15C7.3415 15.7526 7.34175 15.7528 7.342 15.753C7.3421 15.7531 7.34236 15.7533 7.34255 15.7535C7.34293 15.7538 7.34333 15.7542 7.34376 15.7546C7.34463 15.7553 7.3456 15.7562 7.34668 15.7571C7.34884 15.759 7.35143 15.7612 7.35444 15.7638C7.36047 15.7689 7.36821 15.7755 7.37762 15.7834C7.39644 15.7992 7.42197 15.8202 7.45395 15.8457C7.51784 15.8968 7.60777 15.9661 7.72146 16.0475C7.94822 16.2098 8.27315 16.4228 8.67802 16.6354C9.48019 17.0565 10.6424 17.5 12 17.5V15.5C11.0719 15.5 10.2341 15.1935 9.60769 14.8646C9.29828 14.7022 9.05178 14.5402 8.88568 14.4213C8.80295 14.362 8.74109 14.3142 8.7023 14.2832C8.68294 14.2677 8.66941 14.2565 8.662 14.2503C8.65829 14.2472 8.65613 14.2453 8.65553 14.2448C8.65523 14.2446 8.65533 14.2447 8.65582 14.2451C8.65607 14.2453 8.65642 14.2456 8.65686 14.246C8.65709 14.2462 8.65734 14.2464 8.65761 14.2466C8.65775 14.2468 8.65797 14.247 8.65804 14.247C8.65827 14.2472 8.6585 14.2474 8 15ZM12 17.5C13.3576 17.5 14.5198 17.0565 15.322 16.6354C15.7269 16.4228 16.0518 16.2098 16.2785 16.0475C16.3922 15.9661 16.4822 15.8968 16.5461 15.8457C16.578 15.8202 16.6036 15.7992 16.6224 15.7834C16.6318 15.7755 16.6395 15.7689 16.6456 15.7638C16.6486 15.7612 16.6512 15.759 16.6533 15.7571C16.6544 15.7562 16.6554 15.7553 16.6562 15.7546C16.6567 15.7542 16.6571 15.7538 16.6575 15.7535C16.6576 15.7533 16.6579 15.7531 16.658 15.753C16.6583 15.7528 16.6585 15.7526 16 15C15.3415 14.2474 15.3417 14.2472 15.342 14.247C15.342 14.247 15.3423 14.2468 15.3424 14.2466C15.3427 14.2464 15.3429 14.2462 15.3431 14.246C15.3436 14.2456 15.3439 14.2453 15.3442 14.2451C15.3447 14.2447 15.3448 14.2446 15.3445 14.2448C15.3439 14.2453 15.3417 14.2472 15.338 14.2503C15.3306 14.2565 15.3171 14.2677 15.2977 14.2832C15.2589 14.3142 15.1971 14.362 15.1143 14.4213C14.9482 14.5402 14.7017 14.7022 14.3923 14.8646C13.7659 15.1935 12.9281 15.5 12 15.5V17.5Z" fill="url(#paint1_linear_1_703)"/>
<path d="M8 9H8.25" stroke="url(#paint2_linear_1_703)" stroke-width="2" stroke-linecap="round" stroke-linejoin="round"/>
<path d="M16 9H16.25" stroke="url(#paint3_linear_1_703)" stroke-width="2" stroke-linecap="round" stroke-linejoin="round"/>
<defs>
<linearGradient id="paint0_linear_1_703" x1="1" y1="23" x2="11.6461" y2="-3.55232" gradientUnits="userSpaceOnUse">
<stop stop-color="#EE2CA0"/>
<stop offset="1" stop-color="#D32CEE"/>
</linearGradient>
<linearGradient id="paint1_linear_1_703" x1="8" y1="16.5" x2="8.15709" y2="14.4104" gradientUnits="userSpaceOnUse">
<stop stop-color="#EE2CA0"/>
<stop offset="1" stop-color="#D32CEE"/>
</linearGradient>
<linearGradient id="paint2_linear_1_703" x1="8" y1="10" x2="8.62899" y2="9.60781" gradientUnits="userSpaceOnUse">
<stop stop-color="#EE2CA0"/>
<stop offset="1" stop-color="#D32CEE"/>
</linearGradient>
<linearGradient id="paint3_linear_1_703" x1="16" y1="10" x2="16.629" y2="9.60781" gradientUnits="userSpaceOnUse">
<stop stop-color="#EE2CA0"/>
<stop offset="1" stop-color="#D32CEE"/>
</linearGradient>
</defs>
</svg>
